<svg width="249" height="250" viewBox="0 0 249 250" fill="none" xmlns="http://www.w3.org/2000/svg">
<path d="M4.00001 75.8567L111.509 75.8567C113.719 75.8567 115.509 74.0658 115.509 71.8567L115.509 4.77554C115.509 2.56641 113.719 0.775543 111.509 0.775543L4.00001 0.775543C1.79087 0.775543 7.62939e-06 2.56641 7.62939e-06 4.77555L7.62939e-06 71.8567C7.62939e-06 74.0658 1.79087 75.8567 4.00001 75.8567Z" fill="#FF206E"/>
<path d="M136.836 249.121C134.627 249.121 132.836 247.33 132.836 245.121V4.77551C132.836 2.56637 134.627 0.775513 136.836 0.775513H244.345C246.554 0.775513 248.345 2.56637 248.345 4.77551V205.43C248.345 229.345 229.094 249.121 205.813 249.121H136.836Z" fill="#20FFB1"/>
<path d="M115.509 245.121L115.509 97.1831C115.509 94.974 113.719 93.1831 111.509 93.1831L4.00001 93.1831C1.79087 93.1831 7.62933e-06 94.974 7.62926e-06 97.1831L7.62434e-06 245.121C7.62427e-06 247.33 1.79086 249.121 4 249.121L111.509 249.121C113.719 249.121 115.509 247.33 115.509 245.121Z" fill="#FF206E"/>
</svg>