<svg width="1398" height="256" viewBox="0 0 1398 256" fill="none" xmlns="http://www.w3.org/2000/svg">
<path d="M321.501 4.6366H375.53V99.7146L456.572 4.6366H520.891L418.838 121.362L515.746 250.396H450.14L375.53 151.498V250.396H321.501V4.6366Z" fill="#3C3C3B"/>
<path d="M588.72 238.827C570.342 228.166 555.81 213.239 545.552 194.047C535.294 174.856 530.165 152.679 530.165 127.517C530.165 102.355 535.294 80.1778 545.552 60.5598C555.81 41.3683 569.914 26.4416 588.72 15.7797C607.099 5.11773 628.896 0 653.259 0C677.621 0 698.991 5.11773 717.37 15.7797C735.748 26.4416 750.28 40.9419 760.538 60.1333C770.796 79.3248 775.925 101.075 775.925 126.237C775.925 151.826 770.796 174.003 760.538 193.621C750.28 213.239 736.176 228.166 717.37 238.827C698.991 249.489 677.194 255.034 653.259 255.034C628.896 255.034 607.526 249.489 588.72 238.827ZM701.983 185.944C714.378 171.444 720.362 151.826 720.362 127.517C720.362 111.737 717.37 97.6634 711.814 85.2955C706.257 72.9277 698.137 63.5452 687.879 57.148C677.621 50.7508 666.081 47.339 652.831 47.339C639.582 47.339 628.042 50.7508 617.784 57.148C607.526 63.5452 599.405 72.9277 593.849 85.2955C588.293 97.6634 585.301 111.737 585.301 127.517C585.301 143.296 588.293 157.37 593.849 169.312C599.405 181.253 607.099 190.635 617.356 197.459C627.614 204.283 639.154 207.268 652.831 207.268C673.347 207.695 689.588 200.444 701.983 185.944Z" fill="#3C3C3B"/>
<path d="M831.569 4.6366H882.575V250.396H831.569V4.6366Z" fill="#3C3C3B"/>
<path d="M999.201 238.827C981.516 228.166 967.533 213.239 957.662 194.047C947.791 174.856 942.856 152.679 942.856 127.517C942.856 102.355 947.791 80.1778 957.662 60.5598C967.533 41.3683 981.105 26.4416 999.201 15.7797C1016.89 5.11773 1037.86 0 1061.3 0C1084.75 0 1105.31 5.11773 1123 15.7797C1140.68 26.4416 1154.66 40.9419 1164.54 60.1333C1174.41 79.3248 1179.34 101.075 1179.34 126.237C1179.34 151.826 1174.41 174.003 1164.54 193.621C1154.66 213.239 1141.09 228.166 1123 238.827C1105.31 249.489 1084.34 255.034 1061.3 255.034C1037.45 255.034 1016.89 249.489 999.201 238.827ZM1108.19 185.944C1120.12 171.444 1125.88 151.826 1125.88 127.517C1125.88 111.737 1123 97.6634 1117.65 85.2955C1112.3 72.9277 1104.49 63.5452 1094.62 57.148C1084.75 50.7508 1073.64 47.339 1060.89 47.339C1048.14 47.339 1037.04 50.7508 1027.17 57.148C1017.3 63.5452 1009.48 72.9277 1004.14 85.2955C998.79 97.6634 995.911 111.737 995.911 127.517C995.911 143.296 998.79 157.37 1004.14 169.312C1009.48 181.253 1016.89 190.635 1026.76 197.459C1036.63 204.283 1047.73 207.268 1060.89 207.268C1080.63 207.695 1096.26 200.444 1108.19 185.944Z" fill="#3C3C3B"/>
<path d="M1263.9 249.95C1251.16 246.561 1239.69 242.324 1230.35 237.241L1234.6 187.674C1245.64 194.453 1257.11 199.96 1269.43 203.773C1281.74 207.585 1292.79 209.28 1303.41 209.28C1315.3 209.28 1324.65 206.738 1332.29 202.078C1339.51 196.994 1343.33 190.64 1343.33 182.59C1343.33 175.812 1340.79 170.728 1336.11 167.339C1331.02 163.95 1323.37 159.714 1312.75 155.901L1303.83 152.088C1302.56 151.665 1301.28 151.241 1299.58 150.394C1298.31 149.97 1296.19 149.123 1294.49 148.275C1280.89 142.768 1269.43 137.261 1261.36 132.177C1252.86 127.093 1245.64 119.891 1239.69 110.995C1233.75 102.098 1230.77 90.2361 1230.77 75.8323C1230.77 52.1082 1238.84 33.8915 1254.98 20.3349C1271.13 6.7783 1293.21 0 1321.67 0C1343.33 0 1365.42 4.23644 1388.36 13.133L1380.29 61.852C1371.37 56.7683 1361.17 52.5318 1350.98 49.5663C1340.36 46.6008 1330.59 45.3299 1321.25 45.3299C1309.78 45.3299 1300.86 47.4481 1294.49 52.1082C1288.12 56.7683 1284.72 62.6993 1284.72 70.3249C1284.72 77.1032 1286.84 82.1869 1291.51 85.9997C1295.76 89.8125 1302.98 93.6253 1312.75 97.8617L1328.04 103.793C1342.49 109.3 1353.95 114.384 1363.3 119.468C1372.64 124.551 1380.71 132.177 1387.51 141.921C1394.31 151.665 1397.28 164.374 1397.28 179.625C1397.28 203.349 1389.21 221.989 1373.07 235.122C1356.93 248.255 1333.99 255.034 1305.11 255.034C1290.66 255.034 1277.07 253.339 1263.9 249.95Z" fill="#3C3C3B"/>
<path d="M4.00001 80.8567L111.509 80.8567C113.719 80.8567 115.509 79.0658 115.509 76.8567L115.509 9.77554C115.509 7.56641 113.719 5.77554 111.509 5.77554L4.00001 5.77554C1.79087 5.77554 7.62939e-06 7.56641 7.62939e-06 9.77555L7.62939e-06 76.8567C7.62939e-06 79.0658 1.79087 80.8567 4.00001 80.8567Z" fill="#FF206E"/>
<path d="M136.836 254.121C134.627 254.121 132.836 252.33 132.836 250.121V9.77551C132.836 7.56637 134.627 5.77551 136.836 5.77551H244.345C246.554 5.77551 248.345 7.56637 248.345 9.77551V210.43C248.345 234.345 229.094 254.121 205.813 254.121H136.836Z" fill="#20FFB1"/>
<path d="M115.509 250.121L115.509 102.183C115.509 99.974 113.719 98.1831 111.509 98.1831L4.00001 98.1831C1.79087 98.1831 7.62933e-06 99.974 7.62926e-06 102.183L7.62434e-06 250.121C7.62427e-06 252.33 1.79086 254.121 4 254.121L111.509 254.121C113.719 254.121 115.509 252.33 115.509 250.121Z" fill="#FF206E"/>
</svg>
